<svg xmlns="http://www.w3.org/2000/svg" viewBox="0 0 1410.13 392.5"><defs><style>.a{fill:#231f20;}.b{fill:#a6ce39;}.c{fill:#00ada1;}</style></defs><title>lwr_logo_icon</title><polygon class="a" points="357.73 197.97 357.73 116.17 366.46 116.17 366.46 190.15 408.27 190.15 408.27 197.97 357.73 197.97"/><path class="a" d="M455.24,226V219.7a20.71,20.71,0,0,1-16,7c-6.09,0-11.14-1.83-14.59-5.28-4-3.9-5.74-9.31-5.74-15.85V169.5h8.27v34.8c0,10,5.28,15,13.78,15s14.13-5.17,14.13-15V169.5h8.27V226Z" transform="translate(0 -28.05)"/><path class="a" d="M497.28,226c-9.65,0-14.48-6.78-14.48-15.16V176.16h-7.12v-6.31h7.12V152.16h8.27v17.69h12.06v6.31H491.08v34.46c0,5.17,2.41,8.27,7.7,8.27h4.36V226Z" transform="translate(0 -28.05)"/><path class="a" d="M553.21,226V191.1c0-9.88-5.28-14.93-13.78-14.93s-14.13,5.17-14.13,14.93V226H517V144.23h8.27V175.7a20.18,20.18,0,0,1,15.86-6.89c12.75,0,20.33,8.16,20.33,20.91V226Z" transform="translate(0 -28.05)"/><path class="a" d="M584.22,199.94c0,12.4,5.86,19.53,16.65,19.53,6.55,0,10.34-2,14.82-6.43l5.63,4.94c-5.75,5.75-11,8.73-20.68,8.73-14.94,0-24.7-9-24.7-28.95,0-18.26,8.85-28.95,23.2-28.95,14.59,0,23.21,10.57,23.21,27.34v3.79Zm28.14-15.62a14.52,14.52,0,0,0-26.42,0c-1.26,3.1-1.49,4.82-1.72,9.42h29.87c-.23-4.6-.46-6.32-1.73-9.42" transform="translate(0 -28.05)"/><path class="a" d="M668.87,180.3c-3.1-3.1-5.4-4.14-9.76-4.14-8.27,0-13.55,6.55-13.55,15.16V226h-8.27V169.5h8.27v6.89c3.1-4.7,9.31-7.58,15.85-7.58,5.4,0,9.53,1.27,13.55,5.29Z" transform="translate(0 -28.05)"/><path class="a" d="M714,226v-5.4c-4.6,4.6-8.73,6.09-16.31,6.09-7.81,0-12.4-1.49-16-5.17a16.29,16.29,0,0,1-4.25-11.49c0-9.88,6.89-16.31,19.53-16.31h17v-5.4c0-8.27-4.14-12.41-14.47-12.41-7.24,0-10.92,1.72-14.24,6.43l-5.63-5.17c5.06-6.55,10.8-8.39,20-8.39,15.16,0,22.63,6.55,22.63,18.84V226Zm0-26.08H698.16c-8.5,0-12.64,3.44-12.64,10s4,9.65,13,9.65c4.82,0,9.07-.34,12.64-3.79,2-1.83,2.87-5.06,2.87-9.76Z" transform="translate(0 -28.05)"/><path class="a" d="M776,226V191.21c0-10-5.4-15-13.9-15s-14,5.17-14,15V226h-8.27V169.5h8.27v6.2A20.38,20.38,0,0,1,764,168.81c6.09,0,11,1.84,14.47,5.28,4,3.91,5.86,9.19,5.86,15.74V226Z" transform="translate(0 -28.05)"/><polygon class="a" points="892.84 197.97 884.68 197.97 866.53 132.49 848.38 197.97 840.23 197.97 819.32 116.17 828.63 116.17 844.59 182.12 862.63 116.17 870.44 116.17 888.47 182.12 904.44 116.17 913.75 116.17 892.84 197.97"/><path class="a" d="M955.08,220.28a23.61,23.61,0,0,1-32.39,0c-5.74-5.86-6.89-13.79-6.89-22.52s1.15-16.66,6.89-22.52a23.61,23.61,0,0,1,32.39,0C960.83,181.1,962,189,962,197.76s-1.15,16.66-6.89,22.52m-5.86-40a14.48,14.48,0,0,0-10.34-4.14,14.21,14.21,0,0,0-10.22,4.14c-4.13,4.14-4.59,11.14-4.59,17.46s.46,13.33,4.59,17.46a14.22,14.22,0,0,0,10.22,4.14,14.49,14.49,0,0,0,10.34-4.14c4.13-4.13,4.48-11.14,4.48-17.46s-.34-13.32-4.48-17.46" transform="translate(0 -28.05)"/><path class="a" d="M1008.72,180.3c-3.1-3.1-5.4-4.14-9.76-4.14-8.27,0-13.56,6.55-13.56,15.16V226h-8.27V169.5h8.27v6.89c3.1-4.7,9.31-7.58,15.85-7.58,5.4,0,9.53,1.27,13.55,5.29Z" transform="translate(0 -28.05)"/><path class="a" d="M1037.08,226c-9.88,0-14.36-6.43-14.36-15V144.23H1031v66.4c0,5.51,1.84,8.27,7.58,8.27h4.48V226Z" transform="translate(0 -28.05)"/><path class="a" d="M1088.2,226v-6.78c-4.59,6-9.88,7.47-16.08,7.47-5.74,0-10.8-2-13.79-4.94-5.74-5.74-6.89-15.16-6.89-24s1.15-18.27,6.89-24c3-3,8-4.94,13.79-4.94,6.2,0,11.37,1.38,16,7.24V144.23h8.27V226ZM1074,176.16c-12.29,0-14.24,10.57-14.24,21.6s2,21.59,14.24,21.59,14.13-10.57,14.13-21.59-1.84-21.6-14.13-21.6" transform="translate(0 -28.05)"/><path class="a" d="M1188.93,226l-18.61-36.3h-19.64V226h-8.73V144.23h31.36c14.24,0,24.24,8.61,24.24,22.75,0,11.95-7.24,19.76-17.81,21.94l19.41,37.1Zm-16.43-74h-21.82v30h21.82c9.54,0,16.31-4.94,16.31-14.94s-6.78-15-16.31-15" transform="translate(0 -28.05)"/><path class="a" d="M1218.44,199.94c0,12.4,5.86,19.53,16.66,19.53,6.55,0,10.34-2,14.82-6.43l5.63,4.94c-5.74,5.75-11,8.73-20.68,8.73-14.94,0-24.7-9-24.7-28.95,0-18.26,8.84-28.95,23.2-28.95,14.59,0,23.21,10.57,23.21,27.34v3.79Zm28.14-15.62a14.51,14.51,0,0,0-26.42,0c-1.26,3.1-1.5,4.82-1.72,9.42h29.87c-.23-4.6-.46-6.32-1.72-9.42" transform="translate(0 -28.05)"/><path class="a" d="M1285.74,226c-9.88,0-14.36-6.43-14.36-15V144.23h8.27v66.4c0,5.51,1.84,8.27,7.58,8.27h4.48V226Z" transform="translate(0 -28.05)"/><path class="a" d="M1302.74,144.12h9.3v9.3h-9.3Zm.46,25.38h8.27V226h-8.27Z" transform="translate(0 -28.05)"/><path class="a" d="M1334.9,199.94c0,12.4,5.86,19.53,16.65,19.53,6.55,0,10.34-2,14.82-6.43L1372,218c-5.75,5.75-11,8.73-20.68,8.73-14.94,0-24.7-9-24.7-28.95,0-18.26,8.85-28.95,23.21-28.95,14.59,0,23.21,10.57,23.21,27.34v3.79ZM1363,184.32a14.52,14.52,0,0,0-26.42,0c-1.26,3.1-1.5,4.82-1.72,9.42h29.87c-.23-4.6-.46-6.32-1.72-9.42" transform="translate(0 -28.05)"/><path class="a" d="M1398.07,176.16V226h-8.27V176.16h-7.24v-6.32h7.24V159.16c0-8.39,4.71-15.16,14.36-15.16h6v7.12h-4.48c-5.28,0-7.58,3.1-7.58,8.27v10.46h12.06v6.32Z" transform="translate(0 -28.05)"/><path class="a" d="M368.38,288.35c-5.09,0-8.43-1.28-11.62-4.47l2.48-2.48a11.65,11.65,0,0,0,9.24,3.71c5,0,8-2.33,8-6.29a5.46,5.46,0,0,0-1.62-4.24c-1.1-1-2-1.24-4.43-1.62l-4-.62a12.29,12.29,0,0,1-6.23-2.57,8,8,0,0,1-2.57-6.33c0-5.76,4.14-9.57,10.86-9.57a13.59,13.59,0,0,1,10.09,3.71l-2.33,2.33a10.67,10.67,0,0,0-7.9-2.91c-4.52,0-7.14,2.53-7.14,6.29a4.89,4.89,0,0,0,1.53,3.91,9.76,9.76,0,0,0,4.57,1.86l3.71.57c3.19.48,4.76,1.14,6.19,2.38a8.49,8.49,0,0,1,2.86,6.71c0,6-4.67,9.62-11.71,9.62" transform="translate(0 -28.05)"/><path class="a" d="M398.33,288.35c-6.86,0-11.81-4.71-11.81-11.47V254.17h3.62v22.42c0,5.14,3.23,8.52,8.19,8.52s8.24-3.38,8.24-8.52V254.17h3.62v22.71c0,6.76-5,11.47-11.86,11.47" transform="translate(0 -28.05)"/><path class="a" d="M427.46,288.35c-5.09,0-8.43-1.28-11.62-4.47l2.48-2.48a11.65,11.65,0,0,0,9.24,3.71c5,0,8-2.33,8-6.29a5.46,5.46,0,0,0-1.62-4.24c-1.1-1-2-1.24-4.43-1.62l-4-.62a12.29,12.29,0,0,1-6.23-2.57,8,8,0,0,1-2.57-6.33c0-5.76,4.15-9.57,10.86-9.57a13.6,13.6,0,0,1,10.09,3.71l-2.33,2.33a10.68,10.68,0,0,0-7.9-2.91c-4.52,0-7.14,2.53-7.14,6.29a4.89,4.89,0,0,0,1.53,3.91,9.76,9.76,0,0,0,4.57,1.86l3.71.57c3.19.48,4.76,1.14,6.19,2.38a8.49,8.49,0,0,1,2.86,6.71c0,6-4.67,9.62-11.71,9.62" transform="translate(0 -28.05)"/><polygon class="a" points="455.98 229.35 455.98 260.01 452.36 260.01 452.36 229.35 442.55 229.35 442.55 226.12 465.78 226.12 465.78 229.35 455.98 229.35"/><path class="a" d="M488.35,288.07l-2.71-7.67H470.83l-2.71,7.67h-3.85l12.47-33.9h3l12.42,33.9Zm-10-28.71-6.38,17.9h12.66Z" transform="translate(0 -28.05)"/><rect class="a" x="497.01" y="226.12" width="3.62" height="33.89"/><polygon class="a" points="531.38 260.01 513.38 232.83 513.38 260.01 509.77 260.01 509.77 226.12 513.19 226.12 531.19 253.21 531.19 226.12 534.81 226.12 534.81 260.01 531.38 260.01"/><path class="a" d="M563.7,288.07,561,280.4H546.18l-2.71,7.67h-3.85l12.47-33.9h3l12.42,33.9Zm-10-28.71-6.38,17.9h12.66Z" transform="translate(0 -28.05)"/><path class="a" d="M585.55,288.06H572.36V254.17h12.76c5.9,0,10,3.38,10,9a7.76,7.76,0,0,1-5,7.43,8.2,8.2,0,0,1,5.52,8c0,6.14-4.09,9.38-10.09,9.38m-.71-30.66H576v11.76h8.85c3.76,0,6.67-1.86,6.67-5.91s-2.91-5.85-6.67-5.85m.38,15H576v12.43h9.23c4.19,0,6.81-2.43,6.81-6.24s-2.62-6.19-6.81-6.19" transform="translate(0 -28.05)"/><polygon class="a" points="603.21 260.01 603.21 226.12 606.83 226.12 606.83 256.78 624.16 256.78 624.16 260.01 603.21 260.01"/><polygon class="a" points="629.78 260.01 629.78 226.12 650.82 226.12 650.82 229.35 633.39 229.35 633.39 241.3 648.25 241.3 648.25 244.54 633.39 244.54 633.39 256.78 650.82 256.78 650.82 260.01 629.78 260.01"/><path class="a" d="M689,284.92a11.84,11.84,0,0,1-8.57,3.14H668.86V254.17h11.62a11.84,11.84,0,0,1,8.57,3.14c3.52,3.52,3.33,8.71,3.33,13.42s.19,10.67-3.33,14.19m-2.52-25a8.82,8.82,0,0,0-6.67-2.47h-7.37v27.42h7.37a8.83,8.83,0,0,0,6.67-2.48c2.34-2.43,2.24-7.47,2.24-11.62s.1-8.42-2.24-10.85" transform="translate(0 -28.05)"/><polygon class="a" points="700.23 260.01 700.23 226.12 721.27 226.12 721.27 229.35 703.85 229.35 703.85 241.3 718.7 241.3 718.7 244.54 703.85 244.54 703.85 256.78 721.27 256.78 721.27 260.01 700.23 260.01"/><polygon class="a" points="737.69 260.01 734.74 260.01 723.6 226.12 727.41 226.12 736.22 253.54 745.02 226.12 748.83 226.12 737.69 260.01"/><polygon class="a" points="753.45 260.01 753.45 226.12 774.49 226.12 774.49 229.35 757.07 229.35 757.07 241.3 771.92 241.3 771.92 244.54 757.07 244.54 757.07 256.78 774.49 256.78 774.49 260.01 753.45 260.01"/><polygon class="a" points="781.06 260.01 781.06 226.12 784.68 226.12 784.68 256.78 802.01 256.78 802.01 260.01 781.06 260.01"/><path class="a" d="M825.15,284.83a12.42,12.42,0,0,1-17.33,0c-3.19-3.19-3.19-6.52-3.19-13.71s0-10.52,3.19-13.71a12.42,12.42,0,0,1,17.33,0c3.19,3.19,3.19,6.52,3.19,13.71s0,10.52-3.19,13.71m-2.81-25.28a8.28,8.28,0,0,0-11.71,0c-2.14,2.19-2.38,4.48-2.38,11.57s.24,9.38,2.38,11.57a8.27,8.27,0,0,0,11.71,0c2.14-2.19,2.38-4.47,2.38-11.57s-.24-9.38-2.38-11.57" transform="translate(0 -28.05)"/><path class="a" d="M848.76,274.12h-9v13.95h-3.62V254.17h12.62c6.19,0,10.47,3.86,10.47,10s-4.29,10-10.47,10m-.33-16.71h-8.66v13.47h8.66c4.24,0,7.19-2.29,7.19-6.76s-3-6.71-7.19-6.71" transform="translate(0 -28.05)"/><polygon class="a" points="890.88 260.01 890.88 234.26 881.6 254.68 878.51 254.68 869.08 234.26 869.08 260.01 865.46 260.01 865.46 226.12 869.08 226.12 880.13 250.16 890.88 226.12 894.5 226.12 894.5 260.01 890.88 260.01"/><polygon class="a" points="903.59 260.01 903.59 226.12 924.64 226.12 924.64 229.35 907.21 229.35 907.21 241.3 922.07 241.3 922.07 244.54 907.21 244.54 907.21 256.78 924.64 256.78 924.64 260.01 903.59 260.01"/><polygon class="a" points="953.11 260.01 935.11 232.83 935.11 260.01 931.49 260.01 931.49 226.12 934.92 226.12 952.92 253.21 952.92 226.12 956.54 226.12 956.54 260.01 953.11 260.01"/><polygon class="a" points="975.62 229.35 975.62 260.01 972 260.01 972 229.35 962.2 229.35 962.2 226.12 985.43 226.12 985.43 229.35 975.62 229.35"/><rect class="a" x="986.57" y="255.54" width="4.48" height="4.47"/><polygon class="a" points="1010.61 260.01 1010.61 226.12 1014.23 226.12 1014.23 256.78 1031.56 256.78 1031.56 260.01 1010.61 260.01"/><path class="a" d="M1056.93,288.07l-2.71-7.67h-14.81l-2.71,7.67h-3.86l12.47-33.9h3l12.43,33.9Zm-10-28.71-6.38,17.9h12.67Z" transform="translate(0 -28.05)"/><path class="a" d="M1074,288.35c-5.09,0-8.43-1.28-11.62-4.47l2.47-2.48a11.65,11.65,0,0,0,9.24,3.71c5,0,8-2.33,8-6.29a5.46,5.46,0,0,0-1.62-4.24c-1.1-1-2-1.24-4.43-1.62l-4-.62a12.31,12.31,0,0,1-6.24-2.57,8,8,0,0,1-2.57-6.33c0-5.76,4.14-9.57,10.86-9.57a13.59,13.59,0,0,1,10.09,3.71l-2.33,2.33A10.68,10.68,0,0,0,1074,257c-4.52,0-7.14,2.53-7.14,6.29a4.9,4.9,0,0,0,1.52,3.91,9.78,9.78,0,0,0,4.57,1.86l3.71.57c3.19.48,4.76,1.14,6.19,2.38a8.49,8.49,0,0,1,2.85,6.71c0,6-4.66,9.62-11.71,9.62" transform="translate(0 -28.05)"/><polygon class="a" points="1102.54 229.35 1102.54 260.01 1098.92 260.01 1098.92 229.35 1089.11 229.35 1089.11 226.12 1112.34 226.12 1112.34 229.35 1102.54 229.35"/><rect class="a" x="1118.01" y="226.12" width="3.62" height="33.89"/><polygon class="a" points="1152.38 260.01 1134.38 232.83 1134.38 260.01 1130.76 260.01 1130.76 226.12 1134.19 226.12 1152.19 253.21 1152.19 226.12 1155.8 226.12 1155.8 260.01 1152.38 260.01"/><path class="a" d="M1184.56,284.45a12.43,12.43,0,0,1-17.71.38c-3.19-3.19-3.19-6.52-3.19-13.71s0-10.52,3.19-13.71a12,12,0,0,1,8.67-3.52c6.47,0,10.86,4.19,11.85,10.14h-3.62c-1-4.29-4-6.9-8.24-6.9a8.18,8.18,0,0,0-5.85,2.43c-2.14,2.19-2.38,4.48-2.38,11.57s.24,9.42,2.38,11.62a8.15,8.15,0,0,0,5.85,2.38,8.26,8.26,0,0,0,6.43-2.91,8.87,8.87,0,0,0,1.91-6.14V273.5h-8.33v-3.19h11.95v5.38c0,3.9-.81,6.52-2.9,8.76" transform="translate(0 -28.05)"/><path class="a" d="M1218.79,274.12h-9v13.95h-3.62V254.17h12.62c6.19,0,10.47,3.86,10.47,10s-4.28,10-10.47,10m-.33-16.71h-8.66v13.47h8.66c4.24,0,7.19-2.29,7.19-6.76s-3-6.71-7.19-6.71" transform="translate(0 -28.05)"/><path class="a" d="M1255,288.06l-7.71-15h-8.14v15h-3.62V254.17h13c5.9,0,10,3.57,10,9.43a8.79,8.79,0,0,1-7.38,9.09l8,15.38Zm-6.81-30.66h-9v12.42h9c4,0,6.76-2,6.76-6.19s-2.81-6.24-6.76-6.24" transform="translate(0 -28.05)"/><path class="a" d="M1285.2,284.83a12.43,12.43,0,0,1-17.33,0c-3.19-3.19-3.19-6.52-3.19-13.71s0-10.52,3.19-13.71a12.42,12.42,0,0,1,17.33,0c3.19,3.19,3.19,6.52,3.19,13.71s0,10.52-3.19,13.71m-2.81-25.28a8.27,8.27,0,0,0-11.71,0c-2.14,2.19-2.38,4.48-2.38,11.57s.24,9.38,2.38,11.57a8.27,8.27,0,0,0,11.71,0c2.14-2.19,2.38-4.47,2.38-11.57s-.24-9.38-2.38-11.57" transform="translate(0 -28.05)"/><polygon class="a" points="1321.61 260.01 1321.61 234.26 1312.33 254.68 1309.23 254.68 1299.81 234.26 1299.81 260.01 1296.19 260.01 1296.19 226.12 1299.81 226.12 1310.85 250.16 1321.61 226.12 1325.23 226.12 1325.23 260.01 1321.61 260.01"/><rect class="a" x="1334.32" y="226.12" width="3.62" height="33.89"/><path class="a" d="M1355.74,288.35c-5.09,0-8.43-1.28-11.62-4.47l2.48-2.48a11.65,11.65,0,0,0,9.24,3.71c5,0,8-2.33,8-6.29a5.46,5.46,0,0,0-1.62-4.24c-1.09-1-2-1.24-4.43-1.62l-4-.62a12.31,12.31,0,0,1-6.24-2.57,8,8,0,0,1-2.57-6.33c0-5.76,4.14-9.57,10.86-9.57A13.6,13.6,0,0,1,1366,257.6l-2.33,2.33a10.67,10.67,0,0,0-7.9-2.91c-4.52,0-7.14,2.53-7.14,6.29a4.9,4.9,0,0,0,1.52,3.91,9.77,9.77,0,0,0,4.57,1.86l3.71.57c3.19.48,4.76,1.14,6.19,2.38a8.48,8.48,0,0,1,2.86,6.71c0,6-4.67,9.62-11.71,9.62" transform="translate(0 -28.05)"/><polygon class="a" points="1374.31 260.01 1374.31 226.12 1395.35 226.12 1395.35 229.35 1377.93 229.35 1377.93 241.3 1392.78 241.3 1392.78 244.54 1377.93 244.54 1377.93 256.78 1395.35 256.78 1395.35 260.01 1374.31 260.01"/><rect class="a" x="1401.49" y="255.54" width="4.47" height="4.47"/><path class="b" d="M129.88,89c-13.61,83.72,23.17,118.93,36.51,164.58.47,1.6.9,3.1,1.31,4.51a144.24,144.24,0,0,1,8,34.91c1.4,14.5.26,34.52-4.45,53.7C193,311.79,206.95,266.57,204,236.16a139.42,139.42,0,0,0-7.78-33.7l-1.27-4.35c-13.71-46.9-52.15-69.13-34-170-12.74,17-23.54,38.89-31.1,61" transform="translate(0 -28.05)"/><path class="c" d="M163.24,362.31c15.14-96.73-19.66-117.79-35.8-174-.43-1.49-.83-2.9-1.22-4.23a144.75,144.75,0,0,1-8.15-35.18c-1.36-14,.38-31.68,4.95-49.69-23.51,35.75-36.77,85.62-33.65,117.76a139.78,139.78,0,0,0,7.87,34L98.41,255c15.34,53.43,50.81,64.74,34,165.56,12.61-16.78,23.32-37.45,30.86-58.25" transform="translate(0 -28.05)"/><path class="c" d="M261.13,252.77c-1.32,84.9-42.9,157.86-99.55,166.77.47.9,2.39.77,16.07-1.4C241.78,408,293.6,344.89,295,253.29S245.44,88,183.42,82.64c-4.58-.39-8.77-1.16-13.23-.46,56.34,10.66,92.27,85.68,90.95,170.58" transform="translate(0 -28.05)"/><path class="b" d="M33.9,203.32c0-84.91,40.44-158.51,96.94-168.3-.48-.89-2.41-.73-16,1.65C50.83,47.83,0,111.71,0,203.32S52.15,367.8,114.26,372.21c4.58.33,8.78,1,13.24.26C71,362.69,33.9,288.23,33.9,203.32" transform="translate(0 -28.05)"/></svg>