<?xml version="1.0" encoding="utf-8"?>
<!-- Generator: Adobe Illustrator 18.1.1, SVG Export Plug-In . SVG Version: 6.00 Build 0)  -->
<svg version="1.1" id="Layer_1" xmlns="http://www.w3.org/2000/svg" xmlns:xlink="http://www.w3.org/1999/xlink" x="0px" y="0px"
	 viewBox="0 0 102.1 135.9" style="enable-background:new 0 0 102.1 135.9;" xml:space="preserve">
<style type="text/css">
	.st0{fill:#A6CE39;}
	.st1{fill:#00ADA1;}
</style>
<g>
	<g>
		<path class="st0" d="M45,21.1c-4.7,29,8,41.2,12.6,57c0.2,0.6,0.3,1.1,0.5,1.6c1.3,3.7,2.4,7.7,2.8,12.1c0.5,5,0.1,12-1.5,18.6
			C66.8,98.2,71.6,82.6,70.6,72c-0.4-4.2-1.4-8.1-2.7-11.7c-0.1-0.5-0.3-1-0.4-1.5C62.7,42.6,49.4,34.9,55.7,0
			C51.3,5.9,47.6,13.5,45,21.1z"/>
	</g>
	<path class="st1" d="M56.5,115.7c5.2-33.5-6.8-40.8-12.4-60.2c-0.2-0.5-0.3-1-0.4-1.5c-1.3-3.7-2.4-7.8-2.8-12.2
		c-0.5-4.8,0.1-11,1.7-17.2C34.4,37,29.9,54.3,30.9,65.4c0.4,4.3,1.4,8.1,2.7,11.8c0.1,0.4,0.3,0.9,0.4,1.4
		c5.3,18.5,17.6,22.4,11.8,57.3C50.2,130.1,53.9,122.9,56.5,115.7z"/>
	<path class="st1" d="M90.4,77.8c-0.5,29.4-14.9,54.6-34.5,57.7c0.2,0.3,0.8,0.3,5.6-0.5c22.2-3.5,40.1-25.4,40.6-57.1
		c0.5-31.7-17.2-57.2-38.6-59.1c-1.6-0.1-3-0.4-4.6-0.2C78.4,22.4,90.9,48.4,90.4,77.8"/>
	<path class="st0" d="M11.7,60.7c0-29.4,14-54.9,33.6-58.3c-0.2-0.3-0.8-0.3-5.6,0.6C17.6,6.8,0,29,0,60.7s18.1,56.9,39.6,58.5
		c1.6,0.1,3,0.4,4.6,0.1C24.6,115.8,11.7,90.1,11.7,60.7"/>
</g>
</svg>
